<svg
	version="1.1"
   viewBox="0 0 108 108"
   height="108mm"
   width="108mm">
<g id="svg-background"><circle cx="61" cy="91" r="0.25" stroke-width="0" fill="white"></circle><circle cx="2" cy="89" r="0.25" stroke-width="0" fill="white"></circle><circle cx="71" cy="62" r="0.13" stroke-width="0" fill="white"></circle><circle cx="76" cy="64" r="0.09" stroke-width="0" fill="white"></circle><circle cx="17" cy="85" r="0.15" stroke-width="0" fill="white"></circle><circle cx="24" cy="6" r="0.24" stroke-width="0" fill="white"></circle><circle cx="86" cy="20" r="0.1" stroke-width="0" fill="white"></circle><circle cx="97" cy="69" r="0.21" stroke-width="0" fill="white"></circle><circle cx="4" cy="59" r="0.24" stroke-width="0" fill="white"></circle><circle cx="42" cy="55" r="0.22" stroke-width="0" fill="white"></circle><circle cx="71" cy="48" r="0.08" stroke-width="0" fill="white"></circle><circle cx="102" cy="95" r="0.21" stroke-width="0" fill="white"></circle><circle cx="4" cy="19" r="0.17" stroke-width="0" fill="white"></circle><circle cx="29" cy="85" r="0.18" stroke-width="0" fill="white"></circle><circle cx="105" cy="29" r="0.07" stroke-width="0" fill="white"></circle><circle cx="33" cy="52" r="0.14" stroke-width="0" fill="white"></circle><circle cx="11" cy="26" r="0.06" stroke-width="0" fill="white"></circle><circle cx="45" cy="60" r="0.19" stroke-width="0" fill="white"></circle><circle cx="58" cy="33" r="0.12" stroke-width="0" fill="white"></circle><circle cx="62" cy="66" r="0.2" stroke-width="0" fill="white"></circle><circle cx="4" cy="10" r="0.23" stroke-width="0" fill="white"></circle><circle cx="90" cy="84" r="0.25" stroke-width="0" fill="white"></circle><circle cx="24" cy="18" r="0.21" stroke-width="0" fill="white"></circle><circle cx="46" cy="91" r="0.16" stroke-width="0" fill="white"></circle><circle cx="37" cy="30" r="0.25" stroke-width="0" fill="white"></circle><circle cx="91" cy="70" r="0.09" stroke-width="0" fill="white"></circle><circle cx="15" cy="56" r="0.11" stroke-width="0" fill="white"></circle><circle cx="45" cy="46" r="0.1" stroke-width="0" fill="white"></circle><circle cx="56" cy="107" r="0.16" stroke-width="0" fill="white"></circle><circle cx="66" cy="70" r="0.16" stroke-width="0" fill="white"></circle><circle cx="97" cy="92" r="0.11" stroke-width="0" fill="white"></circle><circle cx="49" cy="4" r="0.23" stroke-width="0" fill="white"></circle><circle cx="65" cy="6" r="0.17" stroke-width="0" fill="white"></circle><circle cx="11" cy="26" r="0.14" stroke-width="0" fill="white"></circle><circle cx="85" cy="5" r="0.06" stroke-width="0" fill="white"></circle><circle cx="91" cy="61" r="0.11" stroke-width="0" fill="white"></circle><circle cx="33" cy="85" r="0.16" stroke-width="0" fill="white"></circle><circle cx="88" cy="29" r="0.18" stroke-width="0" fill="white"></circle><circle cx="37" cy="82" r="0.05" stroke-width="0" fill="white"></circle><circle cx="41" cy="55" r="0.2" stroke-width="0" fill="white"></circle><circle cx="50" cy="4" r="0.22" stroke-width="0" fill="white"></circle><circle cx="56" cy="22" r="0.2" stroke-width="0" fill="white"></circle><circle cx="50" cy="101" r="0.12" stroke-width="0" fill="white"></circle><circle cx="39" cy="26" r="0.19" stroke-width="0" fill="white"></circle><circle cx="11" cy="0" r="0.23" stroke-width="0" fill="white"></circle><circle cx="104" cy="19" r="0.22" stroke-width="0" fill="white"></circle><circle cx="13" cy="61" r="0.05" stroke-width="0" fill="white"></circle><circle cx="34" cy="27" r="0.22" stroke-width="0" fill="white"></circle><circle cx="97" cy="30" r="0.17" stroke-width="0" fill="white"></circle><circle cx="47" cy="17" r="0.17" stroke-width="0" fill="white"></circle><circle cx="11" cy="89" r="0.1" stroke-width="0" fill="white"></circle><circle cx="68" cy="44" r="0.08" stroke-width="0" fill="white"></circle><circle cx="33" cy="55" r="0.18" stroke-width="0" fill="white"></circle><circle cx="99" cy="4" r="0.14" stroke-width="0" fill="white"></circle><circle cx="87" cy="26" r="0.18" stroke-width="0" fill="white"></circle><circle cx="99" cy="45" r="0.09" stroke-width="0" fill="white"></circle><circle cx="64" cy="45" r="0.22" stroke-width="0" fill="white"></circle><circle cx="33" cy="57" r="0.19" stroke-width="0" fill="white"></circle><circle cx="0" cy="47" r="0.2" stroke-width="0" fill="white"></circle><circle cx="4" cy="57" r="0.21" stroke-width="0" fill="white"></circle><circle cx="37" cy="32" r="0.12" stroke-width="0" fill="white"></circle><circle cx="69" cy="0" r="0.09" stroke-width="0" fill="white"></circle><circle cx="101" cy="99" r="0.17" stroke-width="0" fill="white"></circle><circle cx="23" cy="34" r="0.07" stroke-width="0" fill="white"></circle><circle cx="94" cy="94" r="0.12" stroke-width="0" fill="white"></circle><circle cx="83" cy="95" r="0.07" stroke-width="0" fill="white"></circle><circle cx="59" cy="96" r="0.16" stroke-width="0" fill="white"></circle><circle cx="40" cy="101" r="0.11" stroke-width="0" fill="white"></circle><circle cx="95" cy="58" r="0.19" stroke-width="0" fill="white"></circle><circle cx="78" cy="36" r="0.24" stroke-width="0" fill="white"></circle><circle cx="100" cy="2" r="0.08" stroke-width="0" fill="white"></circle><circle cx="50" cy="84" r="0.18" stroke-width="0" fill="white"></circle><circle cx="35" cy="84" r="0.21" stroke-width="0" fill="white"></circle><circle cx="105" cy="69" r="0.14" stroke-width="0" fill="white"></circle><circle cx="31" cy="87" r="0.15" stroke-width="0" fill="white"></circle><circle cx="97" cy="101" r="0.06" stroke-width="0" fill="white"></circle><circle cx="74" cy="85" r="0.06" stroke-width="0" fill="white"></circle><circle cx="35" cy="89" r="0.1" stroke-width="0" fill="white"></circle><circle cx="41" cy="69" r="0.25" stroke-width="0" fill="white"></circle><circle cx="47" cy="39" r="0.18" stroke-width="0" fill="white"></circle><circle cx="93" cy="42" r="0.12" stroke-width="0" fill="white"></circle><circle cx="69" cy="99" r="0.17" stroke-width="0" fill="white"></circle><circle cx="28" cy="101" r="0.17" stroke-width="0" fill="white"></circle><circle cx="44" cy="36" r="0.07" stroke-width="0" fill="white"></circle><circle cx="14" cy="5" r="0.12" stroke-width="0" fill="white"></circle><circle cx="49" cy="65" r="0.21" stroke-width="0" fill="white"></circle><circle cx="27" cy="100" r="0.24" stroke-width="0" fill="white"></circle><circle cx="61" cy="79" r="0.07" stroke-width="0" fill="white"></circle><circle cx="3" cy="6" r="0.15" stroke-width="0" fill="white"></circle><circle cx="43" cy="68" r="0.13" stroke-width="0" fill="white"></circle><circle cx="9" cy="92" r="0.25" stroke-width="0" fill="white"></circle><circle cx="67" cy="73" r="0.14" stroke-width="0" fill="white"></circle><circle cx="69" cy="91" r="0.17" stroke-width="0" fill="white"></circle><circle cx="56" cy="56" r="0.17" stroke-width="0" fill="white"></circle><circle cx="43" cy="37" r="0.13" stroke-width="0" fill="white"></circle><circle cx="43" cy="1" r="0.07" stroke-width="0" fill="white"></circle><circle cx="88" cy="47" r="0.13" stroke-width="0" fill="white"></circle><circle cx="82" cy="104" r="0.21" stroke-width="0" fill="white"></circle><circle cx="57" cy="88" r="0.07" stroke-width="0" fill="white"></circle><circle cx="85" cy="38" r="0.11" stroke-width="0" fill="white"></circle><circle cx="22" cy="10" r="0.11" stroke-width="0" fill="white"></circle><circle cx="16" cy="75" r="0.22" stroke-width="0" fill="white"></circle><circle cx="20" cy="39" r="0.08" stroke-width="0" fill="white"></circle><circle cx="63" cy="66" r="0.17" stroke-width="0" fill="white"></circle><circle cx="4" cy="98" r="0.24" stroke-width="0" fill="white"></circle><circle cx="9" cy="64" r="0.22" stroke-width="0" fill="white"></circle><circle cx="77" cy="27" r="0.15" stroke-width="0" fill="white"></circle><circle cx="0" cy="97" r="0.16" stroke-width="0" fill="white"></circle><circle cx="15" cy="59" r="0.13" stroke-width="0" fill="white"></circle><circle cx="82" cy="105" r="0.18" stroke-width="0" fill="white"></circle><circle cx="67" cy="29" r="0.2" stroke-width="0" fill="white"></circle><circle cx="78" cy="78" r="0.09" stroke-width="0" fill="white"></circle><circle cx="14" cy="65" r="0.23" stroke-width="0" fill="white"></circle><circle cx="84" cy="84" r="0.2" stroke-width="0" fill="white"></circle><circle cx="63" cy="49" r="0.09" stroke-width="0" fill="white"></circle><circle cx="73" cy="60" r="0.19" stroke-width="0" fill="white"></circle><circle cx="95" cy="70" r="0.12" stroke-width="0" fill="white"></circle><circle cx="61" cy="78" r="0.16" stroke-width="0" fill="white"></circle><circle cx="46" cy="45" r="0.1" stroke-width="0" fill="white"></circle><circle cx="60" cy="35" r="0.13" stroke-width="0" fill="white"></circle><circle cx="96" cy="25" r="0.13" stroke-width="0" fill="white"></circle><circle cx="108" cy="65" r="0.08" stroke-width="0" fill="white"></circle><circle cx="106" cy="10" r="0.22" stroke-width="0" fill="white"></circle><circle cx="30" cy="60" r="0.16" stroke-width="0" fill="white"></circle><circle cx="76" cy="24" r="0.18" stroke-width="0" fill="white"></circle><circle cx="108" cy="67" r="0.14" stroke-width="0" fill="white"></circle><circle cx="62" cy="19" r="0.24" stroke-width="0" fill="white"></circle><circle cx="8" cy="4" r="0.13" stroke-width="0" fill="white"></circle><circle cx="88" cy="103" r="0.19" stroke-width="0" fill="white"></circle><circle cx="43" cy="101" r="0.16" stroke-width="0" fill="white"></circle><circle cx="35" cy="45" r="0.22" stroke-width="0" fill="white"></circle><circle cx="6" cy="22" r="0.18" stroke-width="0" fill="white"></circle><circle cx="70" cy="106" r="0.07" stroke-width="0" fill="white"></circle><circle cx="102" cy="105" r="0.22" stroke-width="0" fill="white"></circle><circle cx="45" cy="72" r="0.23" stroke-width="0" fill="white"></circle><circle cx="50" cy="104" r="0.25" stroke-width="0" fill="white"></circle><circle cx="106" cy="44" r="0.05" stroke-width="0" fill="white"></circle><circle cx="51" cy="28" r="0.19" stroke-width="0" fill="white"></circle><circle cx="71" cy="26" r="0.23" stroke-width="0" fill="white"></circle><circle cx="7" cy="31" r="0.2" stroke-width="0" fill="white"></circle><circle cx="18" cy="25" r="0.08" stroke-width="0" fill="white"></circle><circle cx="11" cy="23" r="0.15" stroke-width="0" fill="white"></circle><circle cx="81" cy="101" r="0.05" stroke-width="0" fill="white"></circle><circle cx="62" cy="18" r="0.13" stroke-width="0" fill="white"></circle><circle cx="18" cy="22" r="0.17" stroke-width="0" fill="white"></circle><circle cx="21" cy="28" r="0.12" stroke-width="0" fill="white"></circle><circle cx="56" cy="25" r="0.1" stroke-width="0" fill="white"></circle><circle cx="69" cy="8" r="0.21" stroke-width="0" fill="white"></circle><circle cx="98" cy="89" r="0.17" stroke-width="0" fill="white"></circle><circle cx="33" cy="49" r="0.15" stroke-width="0" fill="white"></circle><circle cx="68" cy="105" r="0.1" stroke-width="0" fill="white"></circle><circle cx="68" cy="102" r="0.09" stroke-width="0" fill="white"></circle><circle cx="86" cy="44" r="0.12" stroke-width="0" fill="white"></circle><circle cx="48" cy="99" r="0.15" stroke-width="0" fill="white"></circle><circle cx="71" cy="84" r="0.21" stroke-width="0" fill="white"></circle><circle cx="94" cy="80" r="0.17" stroke-width="0" fill="white"></circle><circle cx="24" cy="88" r="0.15" stroke-width="0" fill="white"></circle><circle cx="76" cy="103" r="0.13" stroke-width="0" fill="white"></circle><circle cx="96" cy="8" r="0.17" stroke-width="0" fill="white"></circle><circle cx="101" cy="40" r="0.12" stroke-width="0" fill="white"></circle><circle cx="103" cy="84" r="0.09" stroke-width="0" fill="white"></circle><circle cx="52" cy="51" r="0.15" stroke-width="0" fill="white"></circle><circle cx="58" cy="3" r="0.19" stroke-width="0" fill="white"></circle><circle cx="100" cy="95" r="0.07" stroke-width="0" fill="white"></circle><circle cx="6" cy="46" r="0.11" stroke-width="0" fill="white"></circle><circle cx="36" cy="64" r="0.17" stroke-width="0" fill="white"></circle><circle cx="10" cy="10" r="0.19" stroke-width="0" fill="white"></circle><circle cx="82" cy="67" r="0.21" stroke-width="0" fill="white"></circle><circle cx="62" cy="10" r="0.18" stroke-width="0" fill="white"></circle><circle cx="83" cy="91" r="0.2" stroke-width="0" fill="white"></circle><circle cx="84" cy="100" r="0.06" stroke-width="0" fill="white"></circle><circle cx="11" cy="65" r="0.13" stroke-width="0" fill="white"></circle><circle cx="8" cy="63" r="0.13" stroke-width="0" fill="white"></circle><circle cx="94" cy="91" r="0.25" stroke-width="0" fill="white"></circle><circle cx="10" cy="21" r="0.16" stroke-width="0" fill="white"></circle><circle cx="30" cy="49" r="0.1" stroke-width="0" fill="white"></circle><circle cx="13" cy="46" r="0.13" stroke-width="0" fill="white"></circle><circle cx="41" cy="102" r="0.07" stroke-width="0" fill="white"></circle><circle cx="94" cy="56" r="0.17" stroke-width="0" fill="white"></circle><circle cx="70" cy="16" r="0.13" stroke-width="0" fill="white"></circle><circle cx="60" cy="68" r="0.25" stroke-width="0" fill="white"></circle><circle cx="13" cy="38" r="0.2" stroke-width="0" fill="white"></circle><circle cx="78" cy="80" r="0.2" stroke-width="0" fill="white"></circle><circle cx="44" cy="67" r="0.06" stroke-width="0" fill="white"></circle><circle cx="71" cy="105" r="0.2" stroke-width="0" fill="white"></circle><circle cx="6" cy="55" r="0.06" stroke-width="0" fill="white"></circle><circle cx="85" cy="80" r="0.23" stroke-width="0" fill="white"></circle><circle cx="77" cy="84" r="0.22" stroke-width="0" fill="white"></circle><circle cx="13" cy="94" r="0.08" stroke-width="0" fill="white"></circle><circle cx="7" cy="21" r="0.21" stroke-width="0" fill="white"></circle><circle cx="102" cy="5" r="0.17" stroke-width="0" fill="white"></circle><circle cx="95" cy="102" r="0.12" stroke-width="0" fill="white"></circle><circle cx="10" cy="70" r="0.22" stroke-width="0" fill="white"></circle><circle cx="37" cy="55" r="0.1" stroke-width="0" fill="white"></circle><circle cx="15" cy="13" r="0.16" stroke-width="0" fill="white"></circle><circle cx="27" cy="46" r="0.24" stroke-width="0" fill="white"></circle><circle cx="14" cy="1" r="0.21" stroke-width="0" fill="white"></circle><circle cx="97" cy="90" r="0.22" stroke-width="0" fill="white"></circle><circle cx="53" cy="61" r="0.24" stroke-width="0" fill="white"></circle><circle cx="87" cy="48" r="0.19" stroke-width="0" fill="white"></circle><circle cx="65" cy="76" r="0.23" stroke-width="0" fill="white"></circle><circle cx="52" cy="4" r="0.11" stroke-width="0" fill="white"></circle><circle cx="68" cy="77" r="0.13" stroke-width="0" fill="white"></circle><circle cx="5" cy="96" r="0.16" stroke-width="0" fill="white"></circle><circle cx="71" cy="91" r="0.22" stroke-width="0" fill="white"></circle><circle cx="5" cy="29" r="0.22" stroke-width="0" fill="white"></circle><circle cx="38" cy="36" r="0.15" stroke-width="0" fill="white"></circle><circle cx="18" cy="49" r="0.18" stroke-width="0" fill="white"></circle><circle cx="107" cy="54" r="0.16" stroke-width="0" fill="white"></circle><circle cx="80" cy="73" r="0.12" stroke-width="0" fill="white"></circle><circle cx="20" cy="101" r="0.08" stroke-width="0" fill="white"></circle><circle cx="65" cy="92" r="0.16" stroke-width="0" fill="white"></circle><circle cx="105" cy="10" r="0.24" stroke-width="0" fill="white"></circle><circle cx="43" cy="105" r="0.12" stroke-width="0" fill="white"></circle><circle cx="104" cy="51" r="0.05" stroke-width="0" fill="white"></circle><circle cx="107" cy="82" r="0.13" stroke-width="0" fill="white"></circle><circle cx="71" cy="92" r="0.17" stroke-width="0" fill="white"></circle><circle cx="57" cy="100" r="0.2" stroke-width="0" fill="white"></circle><circle cx="18" cy="1" r="0.1" stroke-width="0" fill="white"></circle><circle cx="41" cy="8" r="0.23" stroke-width="0" fill="white"></circle><circle cx="4" cy="79" r="0.09" stroke-width="0" fill="white"></circle><circle cx="41" cy="45" r="0.17" stroke-width="0" fill="white"></circle><circle cx="7" cy="89" r="0.12" stroke-width="0" fill="white"></circle><circle cx="81" cy="53" r="0.12" stroke-width="0" fill="white"></circle><circle cx="0" cy="101" r="0.23" stroke-width="0" fill="white"></circle><circle cx="34" cy="66" r="0.16" stroke-width="0" fill="white"></circle><circle cx="40" cy="24" r="0.16" stroke-width="0" fill="white"></circle><circle cx="23" cy="19" r="0.2" stroke-width="0" fill="white"></circle><circle cx="44" cy="12" r="0.22" stroke-width="0" fill="white"></circle><circle cx="90" cy="62" r="0.09" stroke-width="0" fill="white"></circle><circle cx="4" cy="36" r="0.16" stroke-width="0" fill="white"></circle><circle cx="82" cy="52" r="0.13" stroke-width="0" fill="white"></circle><circle cx="17" cy="61" r="0.24" stroke-width="0" fill="white"></circle><circle cx="34" cy="30" r="0.23" stroke-width="0" fill="white"></circle><circle cx="68" cy="42" r="0.14" stroke-width="0" fill="white"></circle><circle cx="27" cy="13" r="0.21" stroke-width="0" fill="white"></circle><circle cx="103" cy="71" r="0.15" stroke-width="0" fill="white"></circle><circle cx="24" cy="10" r="0.18" stroke-width="0" fill="white"></circle><circle cx="66" cy="27" r="0.14" stroke-width="0" fill="white"></circle><circle cx="63" cy="23" r="0.05" stroke-width="0" fill="white"></circle><circle cx="27" cy="92" r="0.21" stroke-width="0" fill="white"></circle><circle cx="56" cy="45" r="0.07" stroke-width="0" fill="white"></circle><circle cx="107" cy="23" r="0.09" stroke-width="0" fill="white"></circle><circle cx="43" cy="98" r="0.19" stroke-width="0" fill="white"></circle><circle cx="46" cy="76" r="0.21" stroke-width="0" fill="white"></circle><circle cx="42" cy="62" r="0.22" stroke-width="0" fill="white"></circle><circle cx="83" cy="64" r="0.15" stroke-width="0" fill="white"></circle><circle cx="85" cy="84" r="0.14" stroke-width="0" fill="white"></circle><circle cx="71" cy="41" r="0.18" stroke-width="0" fill="white"></circle><circle cx="39" cy="28" r="0.1" stroke-width="0" fill="white"></circle><circle cx="88" cy="100" r="0.13" stroke-width="0" fill="white"></circle><circle cx="13" cy="31" r="0.19" stroke-width="0" fill="white"></circle><circle cx="82" cy="105" r="0.2" stroke-width="0" fill="white"></circle><circle cx="36" cy="48" r="0.14" stroke-width="0" fill="white"></circle><circle cx="87" cy="100" r="0.11" stroke-width="0" fill="white"></circle><circle cx="98" cy="5" r="0.11" stroke-width="0" fill="white"></circle><circle cx="83" cy="9" r="0.1" stroke-width="0" fill="white"></circle><circle cx="85" cy="32" r="0.22" stroke-width="0" fill="white"></circle><circle cx="45" cy="54" r="0.21" stroke-width="0" fill="white"></circle><circle cx="21" cy="80" r="0.23" stroke-width="0" fill="white"></circle><circle cx="69" cy="34" r="0.15" stroke-width="0" fill="white"></circle><circle cx="50" cy="57" r="0.25" stroke-width="0" fill="white"></circle><circle cx="2" cy="62" r="0.2" stroke-width="0" fill="white"></circle><circle cx="84" cy="72" r="0.1" stroke-width="0" fill="white"></circle><circle cx="86" cy="28" r="0.18" stroke-width="0" fill="white"></circle><circle cx="100" cy="9" r="0.1" stroke-width="0" fill="white"></circle><circle cx="40" cy="70" r="0.16" stroke-width="0" fill="white"></circle><circle cx="95" cy="58" r="0.2" stroke-width="0" fill="white"></circle><circle cx="26" cy="93" r="0.09" stroke-width="0" fill="white"></circle><circle cx="36" cy="90" r="0.19" stroke-width="0" fill="white"></circle><circle cx="81" cy="57" r="0.12" stroke-width="0" fill="white"></circle><circle cx="81" cy="47" r="0.19" stroke-width="0" fill="white"></circle><circle cx="70" cy="80" r="0.16" stroke-width="0" fill="white"></circle><circle cx="37" cy="83" r="0.12" stroke-width="0" fill="white"></circle><circle cx="3" cy="0" r="0.11" stroke-width="0" fill="white"></circle><circle cx="28" cy="63" r="0.1" stroke-width="0" fill="white"></circle><circle cx="103" cy="80" r="0.17" stroke-width="0" fill="white"></circle><circle cx="10" cy="99" r="0.11" stroke-width="0" fill="white"></circle><circle cx="52" cy="21" r="0.12" stroke-width="0" fill="white"></circle><circle cx="14" cy="61" r="0.09" stroke-width="0" fill="white"></circle><circle cx="31" cy="50" r="0.22" stroke-width="0" fill="white"></circle><circle cx="46" cy="58" r="0.13" stroke-width="0" fill="white"></circle><circle cx="26" cy="61" r="0.17" stroke-width="0" fill="white"></circle><circle cx="88" cy="83" r="0.18" stroke-width="0" fill="white"></circle><circle cx="86" cy="42" r="0.24" stroke-width="0" fill="white"></circle><circle cx="11" cy="71" r="0.14" stroke-width="0" fill="white"></circle><circle cx="76" cy="62" r="0.06" stroke-width="0" fill="white"></circle><circle cx="99" cy="40" r="0.24" stroke-width="0" fill="white"></circle><circle cx="56" cy="84" r="0.19" stroke-width="0" fill="white"></circle><circle cx="46" cy="34" r="0.19" stroke-width="0" fill="white"></circle><circle cx="85" cy="61" r="0.19" stroke-width="0" fill="white"></circle><circle cx="52" cy="49" r="0.21" stroke-width="0" fill="white"></circle><circle cx="81" cy="50" r="0.1" stroke-width="0" fill="white"></circle><circle cx="85" cy="49" r="0.1" stroke-width="0" fill="white"></circle><circle cx="85" cy="27" r="0.1" stroke-width="0" fill="white"></circle><circle cx="53" cy="106" r="0.11" stroke-width="0" fill="white"></circle><circle cx="91" cy="48" r="0.07" stroke-width="0" fill="white"></circle><circle cx="5" cy="102" r="0.17" stroke-width="0" fill="white"></circle><circle cx="26" cy="107" r="0.24" stroke-width="0" fill="white"></circle><circle cx="102" cy="82" r="0.07" stroke-width="0" fill="white"></circle><circle cx="37" cy="76" r="0.21" stroke-width="0" fill="white"></circle><circle cx="50" cy="31" r="0.1" stroke-width="0" fill="white"></circle><circle cx="39" cy="8" r="0.18" stroke-width="0" fill="white"></circle><circle cx="34" cy="14" r="0.13" stroke-width="0" fill="white"></circle><circle cx="86" cy="35" r="0.25" stroke-width="0" fill="white"></circle><circle cx="68" cy="106" r="0.23" stroke-width="0" fill="white"></circle><circle cx="90" cy="59" r="0.23" stroke-width="0" fill="white"></circle><circle cx="14" cy="98" r="0.08" stroke-width="0" fill="white"></circle><circle cx="17" cy="82" r="0.24" stroke-width="0" fill="white"></circle><circle cx="31" cy="37" r="0.12" stroke-width="0" fill="white"></circle><circle cx="31" cy="20" r="0.23" stroke-width="0" fill="white"></circle><circle cx="11" cy="87" r="0.23" stroke-width="0" fill="white"></circle><circle cx="3" cy="42" r="0.23" stroke-width="0" fill="white"></circle><circle cx="29" cy="35" r="0.09" stroke-width="0" fill="white"></circle><circle cx="6" cy="79" r="0.09" stroke-width="0" fill="white"></circle><circle cx="50" cy="90" r="0.13" stroke-width="0" fill="white"></circle><circle cx="101" cy="51" r="0.06" stroke-width="0" fill="white"></circle><circle cx="49" cy="56" r="0.1" stroke-width="0" fill="white"></circle><circle cx="57" cy="73" r="0.13" stroke-width="0" fill="white"></circle><circle cx="80" cy="104" r="0.19" stroke-width="0" fill="white"></circle><circle cx="35" cy="86" r="0.19" stroke-width="0" fill="white"></circle><circle cx="16" cy="86" r="0.07" stroke-width="0" fill="white"></circle><circle cx="53" cy="60" r="0.21" stroke-width="0" fill="white"></circle><circle cx="65" cy="103" r="0.22" stroke-width="0" fill="white"></circle><circle cx="0" cy="97" r="0.13" stroke-width="0" fill="white"></circle><circle cx="49" cy="107" r="0.19" stroke-width="0" fill="white"></circle><circle cx="85" cy="25" r="0.21" stroke-width="0" fill="white"></circle><circle cx="18" cy="52" r="0.06" stroke-width="0" fill="white"></circle><circle cx="68" cy="52" r="0.19" stroke-width="0" fill="white"></circle><circle cx="96" cy="71" r="0.14" stroke-width="0" fill="white"></circle><circle cx="50" cy="40" r="0.07" stroke-width="0" fill="white"></circle><circle cx="12" cy="41" r="0.15" stroke-width="0" fill="white"></circle><circle cx="79" cy="105" r="0.05" stroke-width="0" fill="white"></circle><circle cx="83" cy="68" r="0.15" stroke-width="0" fill="white"></circle><circle cx="64" cy="106" r="0.13" stroke-width="0" fill="white"></circle><circle cx="31" cy="61" r="0.22" stroke-width="0" fill="white"></circle><circle cx="92" cy="43" r="0.07" stroke-width="0" fill="white"></circle><circle cx="33" cy="91" r="0.21" stroke-width="0" fill="white"></circle><circle cx="18" cy="11" r="0.05" stroke-width="0" fill="white"></circle><circle cx="30" cy="34" r="0.07" stroke-width="0" fill="white"></circle><circle cx="35" cy="76" r="0.16" stroke-width="0" fill="white"></circle><circle cx="58" cy="42" r="0.05" stroke-width="0" fill="white"></circle><circle cx="79" cy="57" r="0.24" stroke-width="0" fill="white"></circle><circle cx="34" cy="6" r="0.09" stroke-width="0" fill="white"></circle><circle cx="71" cy="6" r="0.16" stroke-width="0" fill="white"></circle><circle cx="52" cy="59" r="0.18" stroke-width="0" fill="white"></circle><circle cx="43" cy="61" r="0.11" stroke-width="0" fill="white"></circle><circle cx="24" cy="24" r="0.1" stroke-width="0" fill="white"></circle><circle cx="56" cy="48" r="0.19" stroke-width="0" fill="white"></circle><circle cx="43" cy="83" r="0.18" stroke-width="0" fill="white"></circle><circle cx="41" cy="14" r="0.08" stroke-width="0" fill="white"></circle><circle cx="80" cy="17" r="0.2" stroke-width="0" fill="white"></circle><circle cx="45" cy="34" r="0.23" stroke-width="0" fill="white"></circle><circle cx="25" cy="12" r="0.15" stroke-width="0" fill="white"></circle><circle cx="1" cy="56" r="0.09" stroke-width="0" fill="white"></circle><circle cx="10" cy="75" r="0.19" stroke-width="0" fill="white"></circle><circle cx="32" cy="72" r="0.1" stroke-width="0" fill="white"></circle><circle cx="35" cy="10" r="0.24" stroke-width="0" fill="white"></circle><circle cx="80" cy="83" r="0.1" stroke-width="0" fill="white"></circle><circle cx="28" cy="6" r="0.16" stroke-width="0" fill="white"></circle><circle cx="46" cy="7" r="0.25" stroke-width="0" fill="white"></circle><circle cx="28" cy="86" r="0.12" stroke-width="0" fill="white"></circle><circle cx="19" cy="78" r="0.11" stroke-width="0" fill="white"></circle><circle cx="58" cy="104" r="0.15" stroke-width="0" fill="white"></circle><circle cx="108" cy="91" r="0.14" stroke-width="0" fill="white"></circle><circle cx="59" cy="6" r="0.18" stroke-width="0" fill="white"></circle><circle cx="6" cy="79" r="0.06" stroke-width="0" fill="white"></circle><circle cx="53" cy="31" r="0.06" stroke-width="0" fill="white"></circle><circle cx="18" cy="48" r="0.19" stroke-width="0" fill="white"></circle><circle cx="65" cy="59" r="0.21" stroke-width="0" fill="white"></circle><circle cx="45" cy="98" r="0.07" stroke-width="0" fill="white"></circle><circle cx="4" cy="100" r="0.1" stroke-width="0" fill="white"></circle><circle cx="90" cy="33" r="0.17" stroke-width="0" fill="white"></circle><circle cx="18" cy="2" r="0.23" stroke-width="0" fill="white"></circle><circle cx="100" cy="100" r="0.14" stroke-width="0" fill="white"></circle><circle cx="99" cy="69" r="0.2" stroke-width="0" fill="white"></circle><circle cx="4" cy="37" r="0.24" stroke-width="0" fill="white"></circle><circle cx="105" cy="42" r="0.2" stroke-width="0" fill="white"></circle><circle cx="66" cy="54" r="0.16" stroke-width="0" fill="white"></circle><circle cx="64" cy="46" r="0.13" stroke-width="0" fill="white"></circle><circle cx="29" cy="54" r="0.09" stroke-width="0" fill="white"></circle><circle cx="107" cy="100" r="0.22" stroke-width="0" fill="white"></circle><circle cx="9" cy="52" r="0.21" stroke-width="0" fill="white"></circle><circle cx="83" cy="54" r="0.2" stroke-width="0" fill="white"></circle><circle cx="1" cy="28" r="0.11" stroke-width="0" fill="white"></circle><circle cx="80" cy="22" r="0.07" stroke-width="0" fill="white"></circle><circle cx="91" cy="2" r="0.1" stroke-width="0" fill="white"></circle><circle cx="64" cy="43" r="0.09" stroke-width="0" fill="white"></circle><circle cx="62" cy="27" r="0.19" stroke-width="0" fill="white"></circle></g>
        </svg>
